<svg xmlns="http://www.w3.org/2000/svg" viewBox="0 0 625 180"><path fill="none" stroke="#f5f5f5" stroke-linecap="round" stroke-linejoin="round" stroke-width="8" d="m-132.25-36.06 10-59.99c3.33-20 8.33-38.34 15-55 6.67-16.67 15.001-30 25.007-40 10-10 21.667-13.34 35-10 6.667 1.33 11 5.33 13 12 1.333 6.66.333 14.33-3 23-3.333 8.66-8.333 17-15 25s-15 14.66-25 20c-10.001 5.33-20.006 9.66-30.007 13l-10 21.997c6.67-3.34 15-8.337 25.001-14.997 10.006-6.67 19.339-14.34 28.006-23 8.667-8.67 15.333-18.34 20-29 4.667-10.67 6.333-21 5-31" style="stroke-width:8" transform="translate(142.559 209.525)"/><path fill="none" stroke="#f5f5f5" stroke-linecap="round" stroke-width="5" d="M-132.25-36.06c6.67-26.664 15-53.333 25-79.99 10.001-26.67 21.676-48.34 35.007-65" style="stroke-width:5" transform="translate(142.559 209.525)"/><path fill="#f5f5f5" d="M213.286 36.935c-1.311-1.311-2.915-2.04-4.955-2.04h-77.976c-2.04 0-3.79.729-5.1 2.04-1.313 1.312-1.896 2.915-1.896 4.956 0 2.04.583 3.79 1.895 5.101 1.312 1.312 3.06 1.895 5.101 1.895h27.11c1.166 0 2.186.437 3.06 1.312.875.874 1.312 1.894 1.312 3.06v87.887c0 2.186.729 3.935 2.186 5.393 1.458 1.457 3.207 2.186 5.393 2.186 2.04 0 3.935-.729 5.393-2.186 1.457-1.458 2.186-3.207 2.186-5.393V53.259c0-1.166.437-2.186 1.312-3.06.874-.875 1.894-1.312 3.06-1.312h26.964c2.04 0 3.644-.583 4.955-1.895 1.312-1.312 2.04-3.06 2.04-5.101 0-2.04-.728-3.644-2.04-4.956zm74.938 35.709c-5.393-2.915-11.368-4.373-18.073-4.373-4.955 0-9.473.875-13.7 2.624-4.373 1.749-8.016 4.08-11.077 7.142V42.328c0-2.186-.729-3.935-2.04-5.393-1.458-1.311-3.207-2.04-5.393-2.04-2.187 0-3.935.729-5.393 2.04-1.457 1.458-2.04 3.207-2.04 5.393v99.11c0 2.186.583 3.935 2.04 5.392 1.458 1.458 3.206 2.04 5.393 2.04 2.186 0 3.935-.582 5.392-2.04 1.312-1.457 2.04-3.206 2.04-5.393v-41.1c0-3.499.875-6.56 2.77-9.474 1.895-2.77 4.518-4.956 7.87-6.705 3.353-1.603 7.142-2.478 11.223-2.478 6.996 0 12.535 2.04 16.761 6.122 4.227 4.08 6.413 9.91 6.413 17.781v35.854c0 2.187.583 3.936 2.04 5.393 1.458 1.458 3.207 2.04 5.394 2.04 2.04 0 3.789-.582 5.246-2.04 1.458-1.457 2.187-3.206 2.187-5.393v-35.854c0-7.87-1.604-14.575-4.519-20.113-3.06-5.539-7.287-9.911-12.534-12.826zm98.613 1.02c-6.122-3.498-12.972-5.247-20.55-5.247-7.871 0-14.721 1.75-20.843 5.247-6.121 3.498-10.931 8.162-14.283 14.284-3.498 6.121-5.101 13.117-5.101 20.987 0 7.87 1.603 14.721 5.1 20.843 3.353 6.121 8.163 10.93 14.284 14.429 6.122 3.498 12.972 5.1 20.842 5.1 7.725 0 14.575-1.602 20.697-5.1 6.121-3.498 10.785-8.308 14.283-14.43 3.352-6.121 5.101-12.971 5.101-20.842 0-7.87-1.749-14.866-5.247-20.987-3.498-6.122-8.162-10.786-14.283-14.284zm-33.96 11.369c3.936-2.332 8.454-3.498 13.41-3.498 4.955 0 9.327 1.166 13.262 3.498 3.936 2.332 6.996 5.684 9.183 9.765 2.186 4.226 3.352 8.89 3.352 14.137s-1.166 10.057-3.352 14.138c-2.187 4.081-5.247 7.287-9.183 9.62-3.935 2.331-8.307 3.497-13.263 3.497-4.955 0-9.473-1.166-13.409-3.498-3.935-2.332-6.996-5.538-9.182-9.619-2.332-4.08-3.352-8.89-3.352-14.138 0-5.247 1.02-9.91 3.352-14.137 2.186-4.081 5.247-7.433 9.182-9.765zm79.11-13.118v48.535c0 5.392 1.02 10.202 3.352 14.429 2.187 4.372 5.247 7.724 9.183 10.202 3.935 2.478 8.307 3.644 13.117 3.644h2.623c2.478 0 4.519-.583 6.122-2.04 1.603-1.312 2.478-3.061 2.478-5.248 0-2.04-.73-3.79-1.895-5.247-1.166-1.311-2.624-2.04-4.373-2.04h-4.955c-3.207 0-5.83-1.312-7.87-3.935-2.187-2.624-3.207-5.83-3.207-9.765v-36h12.389c2.04 0 3.643-.583 4.955-1.75 1.166-1.165 1.895-2.623 1.895-4.372 0-1.895-.729-3.498-1.895-4.664-1.312-1.166-2.915-1.749-4.955-1.749h-12.389V50.927c0-2.04-.729-3.79-2.04-5.247-1.458-1.311-3.207-2.04-5.247-2.04-2.187 0-3.936.729-5.247 2.04-1.458 1.458-2.04 3.207-2.04 5.247z" style="font-style:normal;font-weight:700;font-size:72px;line-height:1;font-family:&quot;Comfortaa Bold Alt1&quot;;font-variant-ligatures:none;text-align:center;text-anchor:middle" transform="translate(18.925 -25.814) scale(1.25435)"/></svg>